<svg width="1024" height="1024" viewBox="0 0 1024 1024" fill="none" xmlns="http://www.w3.org/2000/svg">
<rect width="1024" height="1024" fill="#1E1E1E"/>
<rect width="1024" height="1024" fill="white"/>
<path d="M409.476 749C394.644 749 381.048 745.292 368.688 737.876C356.74 730.46 347.058 720.778 339.642 708.83C332.638 696.882 329.136 683.492 329.136 668.66V536.408H626.394V472.754C626.394 468.634 624.952 465.132 622.068 462.248C619.184 458.952 615.682 457.304 611.562 457.304H329.136V390.56H613.416C628.248 390.56 641.638 394.268 653.586 401.684C665.946 408.688 675.628 418.37 682.632 430.73C690.048 443.09 693.756 456.48 693.756 470.9V749H409.476ZM411.33 682.256H626.394V598.826H395.88V666.806C395.88 670.926 397.322 674.634 400.206 677.93C403.502 680.814 407.21 682.256 411.33 682.256ZM550.38 353.48V286.736H617.742V353.48H550.38ZM430.488 353.48V286.736H497.232V353.48H430.488Z" fill="black"/>
</svg>
